PathFileType	4	(X/Y/Z)	S:\OneDrive - The University of Tokyo\ìåëÂéˆã∆\ÉoÉCÉÅÉJ\ë™íË\hirabayashi_2\Trimmed\Trimmed_BarL20kg1.trc
DataRate	CameraRate	NumFrames	NumMarkers	Units	OrigDataRate	OrigDataStartFrame	OrigNumFrames
200.00	200.00	       12	12	mm	200.00	154	       306
Frame#	Time	BarR0			BarR50			BarR100			BarR130			BarR180			BarR230			BarL0			BarL50			BarL100			BarL130			BarL180			BarL230			
		X1	Y1	Z1	X2	Y2	Z2	X3	Y3	Z3	X4	Y4	Z4	X5	Y5	Z5	X6	Y6	Z6	X7	Y7	Z7	X8	Y8	Z8	X9	Y9	Z9	X10	Y10	Z10	X11	Y11	Z11	X12	Y12	Z12	

154	0.765	-575.95959	2755.41577	1664.47083	-604.79333	2306.21973	1662.39978	-637.25171	1851.87732	1662.05835	-660.69104	1349.40588	1662.45203	-690.04602	902.67682	1662.65723	-713.71460	454.66089	1664.11719	-1113.54529	2807.72583	1664.60510	-1140.79797	2356.12280	1663.19910	-1171.40173	1905.88611	1660.97290	-1198.80505	1404.15576	1661.37622	-1227.47046	952.69196	1663.53662	-1244.67896	506.76172	1667.50720	
155	0.770	-575.96747	2755.41431	1664.47229	-604.84784	2306.26245	1662.40771	-637.24872	1851.85022	1662.06262	-660.70288	1349.38123	1662.45154	-690.06311	902.68225	1662.64209	-713.72833	454.68002	1664.10803	-1113.56067	2807.71851	1664.60596	-1140.80920	2356.11011	1663.19250	-1171.40625	1905.89648	1660.97693	-1198.82141	1404.16650	1661.37939	-1227.45691	952.68439	1663.56152	-1244.68152	506.74631	1667.52478	
156	0.775	-575.96545	2755.42456	1664.47607	-604.80994	2306.24756	1662.39832	-637.28015	1851.87598	1662.06897	-660.69080	1349.38782	1662.45129	-690.05560	902.67157	1662.64758	-713.73608	454.68369	1664.10376	-1113.51050	2807.71875	1664.60730	-1140.78271	2356.10645	1663.18164	-1171.41687	1905.90210	1660.98730	-1198.81873	1404.16223	1661.37366	-1227.45349	952.70050	1663.54565	-1244.68030	506.74231	1667.51624	
157	0.780	-575.96521	2755.41040	1664.47180	-604.82507	2306.26318	1662.41943	-637.25024	1851.87598	1662.07605	-660.69165	1349.37402	1662.45142	-690.07593	902.69922	1662.64197	-713.72791	454.68365	1664.10632	-1113.54541	2807.71460	1664.60010	-1140.78467	2356.12842	1663.19739	-1171.42615	1905.89441	1660.97058	-1198.81128	1404.15649	1661.36536	-1227.46997	952.68256	1663.55017	-1244.69177	506.74445	1667.52307	
158	0.785	-575.94897	2755.41602	1664.47937	-604.81866	2306.23926	1662.41248	-637.30243	1851.87866	1662.05664	-660.70093	1349.38757	1662.46631	-690.04498	902.66913	1662.65991	-713.73346	454.68457	1664.10327	-1113.56274	2807.72290	1664.60400	-1140.79956	2356.12305	1663.20300	-1171.43726	1905.87463	1660.96838	-1198.81653	1404.13013	1661.39331	-1227.47083	952.68152	1663.54956	-1244.68042	506.72803	1667.51563	
159	0.790	-575.95551	2755.42505	1664.47217	-604.79877	2306.23120	1662.40686	-637.25586	1851.86658	1662.05444	-660.68829	1349.38135	1662.44092	-690.04730	902.70435	1662.63831	-713.75604	454.71185	1664.10144	-1113.54333	2807.72876	1664.61499	-1140.79419	2356.10498	1663.18982	-1171.40442	1905.88879	1660.98315	-1198.80286	1404.14868	1661.37805	-1227.45349	952.65680	1663.55347	-1244.68176	506.74207	1667.52490	
160	0.795	-575.96594	2755.43994	1664.47205	-604.82477	2306.26855	1662.42615	-637.26367	1851.85999	1662.06909	-660.67438	1349.37329	1662.45801	-690.03705	902.68970	1662.66101	-713.73090	454.68750	1664.10828	-1113.54358	2807.70923	1664.60376	-1140.79626	2356.12183	1663.18701	-1171.41553	1905.90637	1660.96313	-1198.80273	1404.17578	1661.36609	-1227.47424	952.67523	1663.55896	-1244.68396	506.76398	1667.52563	
161	0.800	-575.96094	2755.43628	1664.47449	-604.78815	2306.27979	1662.39612	-637.24023	1851.86938	1662.06213	-660.71039	1349.37878	1662.46436	-690.05707	902.70264	1662.68188	-713.74280	454.70425	1664.11096	-1113.52063	2807.72998	1664.60181	-1140.80273	2356.12329	1663.19214	-1171.40881	1905.90088	1660.98962	-1198.82788	1404.13245	1661.39294	-1227.47180	952.69885	1663.55872	-1244.69189	506.76450	1667.52576	
162	0.805	-575.98175	2755.43848	1664.47412	-604.80951	2306.25098	1662.40735	-637.26276	1851.86536	1662.06311	-660.69183	1349.36499	1662.46362	-690.05804	902.71667	1662.67188	-713.71735	454.66492	1664.11011	-1113.55396	2807.72559	1664.60315	-1140.80627	2356.10742	1663.19678	-1171.42590	1905.89136	1660.97632	-1198.80688	1404.14709	1661.37134	-1227.46997	952.69086	1663.55090	-1244.68384	506.74506	1667.53540	
163	0.810	-575.96515	2755.43799	1664.46973	-604.79553	2306.23462	1662.41077	-637.24463	1851.88135	1662.06787	-660.69092	1349.36987	1662.46387	-690.04730	902.68365	1662.65381	-713.74933	454.70911	1664.12183	-1113.58081	2807.70923	1664.59766	-1140.81030	2356.10815	1663.19727	-1171.43213	1905.92432	1660.96851	-1198.82751	1404.14075	1661.36560	-1227.46704	952.68707	1663.55884	-1244.68640	506.73605	1667.52283	
164	0.815	-575.94836	2755.42261	1664.46350	-604.80884	2306.22681	1662.42249	-637.26593	1851.90479	1662.06689	-660.69403	1349.37354	1662.45276	-690.04572	902.70404	1662.66882	-713.73682	454.68472	1664.09753	-1113.56641	2807.71313	1664.58826	-1140.81616	2356.12939	1663.19568	-1171.40674	1905.89136	1660.97107	-1198.81763	1404.16846	1661.37695	-1227.45703	952.68652	1663.56396	-1244.67749	506.74362	1667.52209	
165	0.820	-575.95386	2755.40698	1664.47144	-604.81628	2306.23853	1662.41968	-637.24121	1851.86060	1662.06982	-660.69141	1349.37390	1662.45605	-690.05780	902.69849	1662.65088	-713.74280	454.65588	1664.09827	-1113.54077	2807.73022	1664.60144	-1140.79395	2356.11670	1663.19739	-1171.42603	1905.91382	1660.97192	-1198.82483	1404.14197	1661.36548	-1227.47339	952.68341	1663.56433	-1244.69104	506.76785	1667.52454	
